<svg height="512pt" viewBox="-31 0 511 512" width="512pt" xmlns="http://www.w3.org/2000/svg"><path d="m353.480469 126.238281c-41.222657-10.382812-84.859375-.4375-108.648438 24.757813-.957031 1.011718-2.296875 1.457031-3.398437 2.28125 5.917968-52.324219 49.9375-93.277344 103.8125-93.277344 8.292968 0 15-6.710938 15-15s-6.707032-15-15-15c-43.84375 0-82.480469 21.332031-107.152344 53.808594-9.835938-47.769532-52.214844-83.808594-102.847656-83.808594h-60c-8.289063 0-15 6.710938-15 15 0 57.890625 47.109375 104.988281 105 104.988281h53.292968c-3.929687 11.019531-6.328124 22.664063-7.257812 34.785157-8.03125-4.746094-42.394531-47.6875-111.9375-30.820313-43.503906 10.535156-76.816406 42.234375-89.105469 84.785156-10.796875 37.371094-12.714843 83.027344-5.257812 125.261719 17.3125 98.230469 77.179687 178 139.246093 178 12.320313 0 24.140626-3.019531 35.15625-8.980469 28.390626-15.378906 63.355469-15.351562 91.742188 0 10.972656 5.960938 22.792969 8.980469 35.144531 8.980469 62.078125 0 121.933594-79.78125 139.246094-178.015625 7.191406-40.707031 5.667969-84.992187-4.160156-121.480469-11.777344-43.726562-43.8125-75.160156-87.875-86.265625zm0 0"/></svg>