<?xml version="1.0" encoding="iso-8859-1"?>
<!-- Generator: Adobe Illustrator 19.0.0, SVG Export Plug-In . SVG Version: 6.00 Build 0)  -->
<svg version="1.1" id="Capa_1" xmlns="http://www.w3.org/2000/svg" xmlns:xlink="http://www.w3.org/1999/xlink" x="0px" y="0px"
	 viewBox="0 0 425.604 425.604" style="enable-background:new 0 0 425.604 425.604;" xml:space="preserve">
<g>
	<g>
		<g>
			<path d="M203.452,191.6l-2.8,58.4h24.3l-2.8-58.4C215.952,192.6,209.652,192.6,203.452,191.6z"/>
			<path d="M225.752,270h-26.1l-6.3,135c0,0.3,0,0.8,0,1.1v0.2c0,5.3,2.2,10.3,6,13.9c7.7,7.4,20,7.2,27.4-0.6
				c3.7-3.9,5.6-9.1,5.3-14.4L225.752,270z"/>
			<path d="M271.752,2.3c0-0.5-0.2-0.9-0.5-1.3c0-0.1-0.1-0.1-0.1-0.1c-0.4-0.3-0.9-0.5-1.4-0.5c-1.1,0.1-1.9,0.9-2,1.9l-5,80.2
				c-0.3,5.3-4.7,9.4-10,9.5h-22.7c-5.3-0.1-9.7-4.3-10-9.6l-5-80.3c-0.1-1.1-0.9-2-2-2.1h-0.3c-1.1,0.1-1.9,1-2,2.1l-5.1,80.4
				c-0.3,5.3-4.7,9.4-10,9.5h-22.8c-5.3-0.1-9.7-4.2-10-9.5l-5-80.2c-0.1-1.1-1-1.9-2-1.9c-1.1,0-2,0.8-2,1.9l-2.8,79.6
				c0,39.1,20.1,76.7,46.7,87.6c9.6,4,20.4,4,30,0c26.6-10.8,46.7-48.5,46.8-87.6L271.752,2.3z"/>
		</g>
	</g>
</g>
<g>
</g>
<g>
</g>
<g>
</g>
<g>
</g>
<g>
</g>
<g>
</g>
<g>
</g>
<g>
</g>
<g>
</g>
<g>
</g>
<g>
</g>
<g>
</g>
<g>
</g>
<g>
</g>
<g>
</g>
</svg>
