<svg id="Layer_1" enable-background="new 0 0 510 510" height="512" viewBox="0 0 510 510" width="512" xmlns="http://www.w3.org/2000/svg"><g><path d="m60 0v510h390v-510zm360 480h-330v-450h330z"/><path d="m390 210v-30h-31.076c-6.597-45.916-43.008-82.327-88.924-88.924v-31.076h-30v31.076c-45.916 6.597-82.327 43.008-88.924 88.924h-31.076v30zm-135-90c36.219 0 66.523 25.809 73.493 60h-146.986c6.97-34.191 37.274-60 73.493-60z"/><path d="m120 240h30v30h-30z"/><path d="m180 240h210v30h-210z"/><path d="m120 300h30v30h-30z"/><path d="m180 300h210v30h-210z"/><path d="m120 360h30v30h-30z"/><path d="m180 360h210v30h-210z"/><path d="m120 420h30v30h-30z"/><path d="m180 420h210v30h-210z"/></g></svg>