<svg id="Layer_1" enable-background="new 0 0 510 510" height="512" viewBox="0 0 510 510" width="512" xmlns="http://www.w3.org/2000/svg"><g><path d="m60 0v510h390v-510zm90 450h-30v-30h30zm0-60h-30v-30h30zm0-60h-30v-30h30zm0-60h-30v-30h30zm240 180h-210v-30h210zm0-60h-210v-30h210zm0-60h-210v-30h210zm0-60h-210v-30h210zm0-60c-11.675 0-258.042 0-270 0v-30h31.076c6.597-45.916 43.008-82.327 88.924-88.924v-31.076h30v31.076c45.916 6.598 82.327 43.008 88.924 88.924h31.076z"/><path d="m255 120c-36.219 0-66.523 25.809-73.493 60h146.986c-6.97-34.191-37.274-60-73.493-60z"/></g></svg>