<svg height="512" viewBox="0 0 64 64" width="512" xmlns="http://www.w3.org/2000/svg"><path d="m4.781 60h40.438l.5-2h-41.438z"/><path d="m25 36c.672 0 1.334.039 1.99.1 0-.034.01-.067.01-.1a2 2 0 0 0 -4 0c0 .034.009.067.01.1.656-.061 1.318-.1 1.99-.1z"/><path d="m56 4.168-18.123 2.832h18.123z"/><path d="m50.778 21.192 1.414-1.414a3 3 0 1 0 -4.242-4.242l-1.414 1.414a3 3 0 1 0 4.242 4.242z"/><path d="m25 38a19.007 19.007 0 0 0 -18.949 18h37.9a19.007 19.007 0 0 0 -18.951-18zm-14.528 15.25-1.936-.5a17.041 17.041 0 0 1 .7-2.125l1.854.75a14.9 14.9 0 0 0 -.618 1.875zm18.278-10.778a15.029 15.029 0 0 0 -16.744 7.028l-1.731-1a17.026 17.026 0 0 1 18.975-7.964z"/><path d="m26 9v23.142a4 4 0 0 1 3 3.858c0 .13-.028.257-.04.387a21.012 21.012 0 0 1 16.989 19.613h1.051a1 1 0 0 1 .97 1.243l-.689 2.757h12.719v-51zm27 39h-6v-2h6zm0-4h-9v-2h9zm0-4h-13v-2h13zm.606-6.08-1.414 1.414-9.192-9.192-9.192 9.192-1.414-1.414 9.192-9.192-2.9-2.9a5 5 0 0 1 -6.292-.636l-2.829-2.828 1.414-1.414 2.829 2.828a3 3 0 0 0 3.405.577l-4.819-4.819 1.414-1.414 4.819 4.819a3 3 0 0 0 -.577-3.4l-2.828-2.829 1.414-1.414 2.828 2.829a5 5 0 0 1 .636 6.292l2.9 2.9 1.486-1.486a5 5 0 0 1 .636-6.292l1.414-1.414a5 5 0 0 1 7.07 7.07l-1.414 1.414a5.005 5.005 0 0 1 -6.292.636l-1.486 1.486zm3.394 14.08h-2v-2h2zm0-4h-2v-2h2zm0-4h-2v-2h2z"/></svg>